<svg version="1" xmlns="http://www.w3.org/2000/svg" width="682.667" height="682.667" viewBox="0 0 512.000000 512.000000"><path d="M274.4 191.6c-3.8.6-9.6 2.4-12.7 3.9l-5.7 2.8-7.2-3.3c-6-2.8-8.8-3.5-15.9-3.8-7.2-.4-9.4-.1-13.4 1.7-8.4 3.7-17.6 11.2-34.3 27.7-9 8.9-19.9 18.7-24.1 21.8-22.7 16.3-50.7 25-67.9 21.1-13.3-3.1-22.7-10.7-22.5-18.4 0-2.2.9-5.3 1.9-6.9 1.8-3.2 3.9-4.1 8.9-4.2 2.9-.1 2.9-.1 1-1.6-3.5-2.6-8.9-3.5-14.5-2.3-6.9 1.5-13 7.3-15 14.4-2.8 9.6-1.2 24.7 3.6 35 5.5 11.8 20.3 25.6 34.8 32.4 10.1 4.8 17.3 6.8 30.6 8.6 4.4.6 27.7.7 31 .1 1.4-.2 5.3-.7 8.7-1 17.7-1.8 36.8-6.7 51.3-13.4 14.1-6.4 32.8-21.3 40.3-32 1.2-1.7 2.4-3.2 2.7-3.2.3 0 1.4 1.3 2.5 2.9 5 7.1 16.4 17.8 25.5 23.8 16.9 11.2 37.5 18.3 62 21.3 5.2.6 10.6 1.3 12 1.6 3.2.5 28.9.6 31.5 0 1.1-.2 4.1-.7 6.7-1 20.8-2.8 40.7-14.6 54.4-32.2 8.6-11 12.2-29.4 8.4-43-3.5-12.3-17.5-18.5-28.4-12.6l-3.1 1.7 3 .3c7.1.7 8.9 2.3 10.5 9.1 1.7 6.9-3.6 13.5-14.4 18-9.9 4.1-17.1 4.5-32.2 1.7-6.5-1.2-19.2-6-27.6-10.4-12.9-6.7-23.7-15.3-41.4-33-25.5-25.5-34.6-30.4-51-27.6z"/></svg>